<svg width="21" height="21" viewBox="0 0 21 21" fill="none" xmlns="http://www.w3.org/2000/svg">
<path d="M7.03434 1.44922H4.84684C4.07329 1.44922 3.33143 1.75496 2.78445 2.29918C2.23747 2.8434 1.93018 3.58152 1.93018 4.35116L1.93018 6.52761C1.93018 7.29725 2.23747 8.03537 2.78445 8.57959C3.33143 9.12381 4.07329 9.42955 4.84684 9.42955H7.03434C7.80789 9.42955 8.54976 9.12381 9.09674 8.57959C9.64372 8.03537 9.95101 7.29725 9.95101 6.52761V4.35116C9.95101 3.58152 9.64372 2.8434 9.09674 2.29918C8.54976 1.75496 7.80789 1.44922 7.03434 1.44922V1.44922ZM8.49268 6.52761C8.49268 6.91243 8.33903 7.28149 8.06554 7.5536C7.79205 7.82571 7.42112 7.97858 7.03434 7.97858H4.84684C4.46007 7.97858 4.08914 7.82571 3.81565 7.5536C3.54215 7.28149 3.38851 6.91243 3.38851 6.52761V4.35116C3.38851 3.96634 3.54215 3.59728 3.81565 3.32517C4.08914 3.05306 4.46007 2.90019 4.84684 2.90019H7.03434C7.42112 2.90019 7.79205 3.05306 8.06554 3.32517C8.33903 3.59728 8.49268 3.96634 8.49268 4.35116V6.52761Z" fill="black"/>
<path d="M16.5135 1.44922H14.326C13.5524 1.44922 12.8106 1.75496 12.2636 2.29918C11.7166 2.8434 11.4093 3.58152 11.4093 4.35116V6.52761C11.4093 7.29725 11.7166 8.03537 12.2636 8.57959C12.8106 9.12381 13.5524 9.42955 14.326 9.42955H16.5135C17.287 9.42955 18.0289 9.12381 18.5759 8.57959C19.1228 8.03537 19.4301 7.29725 19.4301 6.52761V4.35116C19.4301 3.58152 19.1228 2.8434 18.5759 2.29918C18.0289 1.75496 17.287 1.44922 16.5135 1.44922V1.44922ZM17.9718 6.52761C17.9718 6.91243 17.8182 7.28149 17.5447 7.5536C17.2712 7.82571 16.9002 7.97858 16.5135 7.97858H14.326C13.9392 7.97858 13.5683 7.82571 13.2948 7.5536C13.0213 7.28149 12.8676 6.91243 12.8676 6.52761V4.35116C12.8676 3.96634 13.0213 3.59728 13.2948 3.32517C13.5683 3.05306 13.9392 2.90019 14.326 2.90019H16.5135C16.9002 2.90019 17.2712 3.05306 17.5447 3.32517C17.8182 3.59728 17.9718 3.96634 17.9718 4.35116V6.52761Z" fill="black"/>
<path d="M7.03434 10.8805H4.84684C4.07329 10.8805 3.33143 11.1862 2.78445 11.7305C2.23747 12.2747 1.93018 13.0128 1.93018 13.7824L1.93018 15.9589C1.93018 16.7285 2.23747 17.4666 2.78445 18.0109C3.33143 18.5551 4.07329 18.8608 4.84684 18.8608H7.03434C7.80789 18.8608 8.54976 18.5551 9.09674 18.0109C9.64372 17.4666 9.95101 16.7285 9.95101 15.9589V13.7824C9.95101 13.0128 9.64372 12.2747 9.09674 11.7305C8.54976 11.1862 7.80789 10.8805 7.03434 10.8805ZM8.49268 15.9589C8.49268 16.3437 8.33903 16.7128 8.06554 16.9849C7.79205 17.257 7.42112 17.4099 7.03434 17.4099H4.84684C4.46007 17.4099 4.08914 17.257 3.81565 16.9849C3.54215 16.7128 3.38851 16.3437 3.38851 15.9589V13.7824C3.38851 13.3976 3.54215 13.0286 3.81565 12.7564C4.08914 12.4843 4.46007 12.3315 4.84684 12.3315H7.03434C7.42112 12.3315 7.79205 12.4843 8.06554 12.7564C8.33903 13.0286 8.49268 13.3976 8.49268 13.7824V15.9589Z" fill="black"/>
<path d="M16.5135 10.8805H14.326C13.5524 10.8805 12.8106 11.1862 12.2636 11.7305C11.7166 12.2747 11.4093 13.0128 11.4093 13.7824V15.9589C11.4093 16.7285 11.7166 17.4666 12.2636 18.0109C12.8106 18.5551 13.5524 18.8608 14.326 18.8608H16.5135C17.287 18.8608 18.0289 18.5551 18.5759 18.0109C19.1228 17.4666 19.4301 16.7285 19.4301 15.9589V13.7824C19.4301 13.0128 19.1228 12.2747 18.5759 11.7305C18.0289 11.1862 17.287 10.8805 16.5135 10.8805ZM17.9718 15.9589C17.9718 16.3437 17.8182 16.7128 17.5447 16.9849C17.2712 17.257 16.9002 17.4099 16.5135 17.4099H14.326C13.9392 17.4099 13.5683 17.257 13.2948 16.9849C13.0213 16.7128 12.8676 16.3437 12.8676 15.9589V13.7824C12.8676 13.3976 13.0213 13.0286 13.2948 12.7564C13.5683 12.4843 13.9392 12.3315 14.326 12.3315H16.5135C16.9002 12.3315 17.2712 12.4843 17.5447 12.7564C17.8182 13.0286 17.9718 13.3976 17.9718 13.7824V15.9589Z" fill="black"/>
</svg>
