<svg width="21" height="21" viewBox="0 0 21 21" fill="none" xmlns="http://www.w3.org/2000/svg">
<g clip-path="url(#clip0_238_16107)">
<path d="M20.0461 9.20738C19.91 4.93074 16.0491 0.5 10.0198 0.5C7.17082 0.5 4.56726 1.63484 2.68871 3.68219C0.787301 5.75473 -0.159847 8.52016 0.0941762 11.4688C0.528473 16.511 4.82074 20.5 9.81609 20.5H9.83554C11.4412 20.4963 12.1455 18.9242 11.2443 17.7814C10.5536 16.9054 10.7465 16.2546 10.9519 15.8701C11.3004 15.2184 11.8457 14.9139 12.6691 14.9123C13.4005 14.9123 14.1534 14.9231 14.8744 14.8768C18.0478 14.6748 20.1491 12.4495 20.0461 9.20738ZM2.42894 8.19117C2.42894 7.22187 3.21746 6.43336 4.18675 6.43336C5.15605 6.43336 5.94457 7.22187 5.94457 8.19117C5.94457 9.16047 5.15605 9.94898 4.18675 9.94898C3.21746 9.94898 2.42894 9.16047 2.42894 8.19117ZM4.77269 14.6365C3.8034 14.6365 3.01488 13.848 3.01488 12.8787C3.01488 11.9094 3.8034 11.1209 4.77269 11.1209C5.74199 11.1209 6.5305 11.9094 6.5305 12.8787C6.5305 13.848 5.74199 14.6365 4.77269 14.6365ZM7.70238 6.43336C6.73308 6.43336 5.94457 5.64484 5.94457 4.67555C5.94457 3.70625 6.73308 2.91773 7.70238 2.91773C8.67168 2.91773 9.46019 3.70625 9.46019 4.67555C9.46019 5.64484 8.67168 6.43336 7.70238 6.43336ZM12.3899 6.43336C11.4206 6.43336 10.6321 5.64484 10.6321 4.67555C10.6321 3.70625 11.4206 2.91773 12.3899 2.91773C13.3592 2.91773 14.1477 3.70625 14.1477 4.67555C14.1477 5.64484 13.3592 6.43336 12.3899 6.43336ZM15.9055 9.94898C14.9362 9.94898 14.1477 9.16047 14.1477 8.19117C14.1477 7.22187 14.9362 6.43336 15.9055 6.43336C16.8748 6.43336 17.6633 7.22187 17.6633 8.19117C17.6633 9.16047 16.8748 9.94898 15.9055 9.94898Z" fill="black"/>
</g>
<defs>
<clipPath id="clip0_238_16107">
<rect width="20" height="20" fill="white" transform="translate(0.0516357 0.5)"/>
</clipPath>
</defs>
</svg>
