<svg width="21" height="21" viewBox="0 0 21 21" fill="none" xmlns="http://www.w3.org/2000/svg">
<g clip-path="url(#clip0_238_16248)">
<path fill-rule="evenodd" clip-rule="evenodd" d="M10.3089 18.8068C14.8344 18.8068 18.6065 15.121 18.6065 10.4493C18.6065 5.77747 14.8344 2.09168 10.3089 2.09168C5.78332 2.09168 2.01129 5.77747 2.01129 10.4493C2.01129 15.121 5.78332 18.8068 10.3089 18.8068ZM10.3089 20.3988C15.8038 20.3988 20.2584 15.9442 20.2584 10.4493C20.2584 4.9543 15.8038 0.499756 10.3089 0.499756C4.81392 0.499756 0.359375 4.9543 0.359375 10.4493C0.359375 15.9442 4.81392 20.3988 10.3089 20.3988Z" fill="black"/>
<path fill-rule="evenodd" clip-rule="evenodd" d="M12.2725 8.41863L9.1146 9.772L8.09262 12.5976L10.9799 11.6353L12.2725 8.41863ZM12.986 6.34919C13.8163 5.99332 14.662 6.81997 14.3252 7.65824L12.3791 12.5008C12.2682 12.7768 12.0416 12.9901 11.7594 13.0842L7.4144 14.5325C6.6111 14.8002 5.85325 14.0229 6.14125 13.2267L7.67988 8.97256C7.77528 8.7088 7.97575 8.49639 8.23355 8.3859L12.986 6.34919Z" fill="black"/>
</g>
<defs>
<clipPath id="clip0_238_16248">
<rect width="20" height="20" fill="white" transform="translate(0.308838 0.449219)"/>
</clipPath>
</defs>
</svg>
