<svg width="21" height="21" viewBox="0 0 21 21" fill="none" xmlns="http://www.w3.org/2000/svg">
<path d="M17.7571 5.07047H16.7522C16.9448 4.70738 17.0467 4.30324 17.0495 3.89237C17.0501 3.3577 16.8849 2.83596 16.5767 2.3988C16.2685 1.96165 15.8323 1.63053 15.3281 1.45092C14.8239 1.27131 14.2764 1.25203 13.7608 1.39572C13.2452 1.53941 12.7868 1.83902 12.4485 2.25341C12.423 2.29016 11.3624 3.69445 10.6802 4.60112C9.99707 3.69351 8.93553 2.28357 8.90533 2.24493C8.56594 1.83256 8.10722 1.53507 7.59199 1.39318C7.07676 1.25129 6.53022 1.27195 6.0272 1.45232C5.52419 1.63269 5.08929 1.96396 4.78206 2.40077C4.47484 2.83757 4.3103 3.35855 4.31099 3.89237C4.31372 4.30324 4.41569 4.70738 4.60822 5.07047H3.6033C3.04046 5.07122 2.50088 5.29487 2.10289 5.6924C1.70489 6.08992 1.48097 6.62886 1.48022 7.19104V10.4897C1.48022 10.6772 1.55478 10.857 1.6875 10.9895C1.82022 11.1221 2.00023 11.1966 2.18792 11.1966H2.42381V16.1446C2.3684 16.6221 2.42181 17.1059 2.58004 17.5599C2.73827 18.0139 2.99723 18.4263 3.33755 18.7662C3.67787 19.1061 4.09073 19.3648 4.54525 19.5228C4.99978 19.6808 5.4842 19.7342 5.96228 19.6788H15.3982C15.8763 19.7342 16.3607 19.6808 16.8152 19.5228C17.2697 19.3648 17.6826 19.1061 18.0229 18.7662C18.3632 18.4263 18.6222 18.0139 18.7804 17.5599C18.9386 17.1059 18.992 16.6221 18.9366 16.1446V11.1966H19.1725C19.3602 11.1966 19.5402 11.1221 19.6729 10.9895C19.8057 10.857 19.8802 10.6772 19.8802 10.4897V7.19104C19.8795 6.62886 19.6556 6.08992 19.2576 5.6924C18.8596 5.29487 18.32 5.07122 17.7571 5.07047ZM18.4648 7.19104V9.78285H11.3879V6.48418H17.7571C17.9448 6.48443 18.1246 6.55898 18.2573 6.69149C18.3899 6.824 18.4646 7.00365 18.4648 7.19104ZM13.5478 3.14499C13.6567 3.0096 13.7948 2.90055 13.9518 2.82596C14.1089 2.75138 14.2807 2.7132 14.4546 2.71428C14.7674 2.71428 15.0674 2.8384 15.2886 3.05933C15.5098 3.28027 15.6341 3.57992 15.6341 3.89237C15.6341 4.20482 15.5098 4.50448 15.2886 4.72541C15.0674 4.94635 14.7674 5.07047 14.4546 5.07047H12.0956C12.7344 4.22413 13.5034 3.20248 13.5478 3.14499ZM5.72638 3.89237C5.72688 3.58008 5.85131 3.28071 6.07239 3.05989C6.29348 2.83906 6.5932 2.71478 6.90587 2.71428C7.07656 2.71255 7.24549 2.74897 7.40026 2.82089C7.55504 2.8928 7.69175 2.99839 7.80039 3.12991C7.84946 3.19683 8.62414 4.22224 9.26484 5.07047H6.90587C6.5932 5.06997 6.29348 4.94569 6.07239 4.72486C5.85131 4.50403 5.72688 4.20467 5.72638 3.89237ZM2.89561 7.19104C2.89586 7.00365 2.9705 6.824 3.10316 6.69149C3.23583 6.55898 3.41569 6.48443 3.6033 6.48418H9.97253V9.78285H2.89561V7.19104ZM3.8392 16.1446V11.1966H9.97253V18.2651H5.96228C4.47423 18.2651 3.8392 17.6308 3.8392 16.1446ZM17.5212 16.1446C17.5212 17.6308 16.8862 18.2651 15.3982 18.2651H11.3879V11.1966H17.5212V16.1446Z" fill="black"/>
</svg>
