<svg width="21" height="21" viewBox="0 0 21 21" fill="none" xmlns="http://www.w3.org/2000/svg">
<path d="M8.19655 17.8925V15.3368C8.19654 14.6891 8.70661 14.163 9.33842 14.1589H11.6583C12.2929 14.1589 12.8074 14.6862 12.8074 15.3368V17.8851C12.8074 18.4468 13.2495 18.9033 13.7975 18.9074H15.3802C16.1194 18.9093 16.829 18.6097 17.3523 18.0746C17.8757 17.5396 18.1698 16.813 18.1698 16.0553V8.79559C18.1698 8.18355 17.9051 7.60298 17.4471 7.21031L12.0702 2.80261C11.1303 2.03166 9.78794 2.05656 8.87589 2.86188L3.61462 7.21031C3.13496 7.59141 2.84827 8.17369 2.83411 8.79559V16.0479C2.83411 17.6271 4.08306 18.9074 5.62373 18.9074H7.17031C7.43415 18.9093 7.68785 18.8033 7.8751 18.6127C8.06234 18.4222 8.16765 18.1629 8.16764 17.8925H8.19655Z" fill="#1D1410"/>
</svg>
