<svg width="32" height="33" viewBox="0 0 32 33" fill="none" xmlns="http://www.w3.org/2000/svg">
<path d="M32 25.6426C32 26.6874 31.1531 27.5343 30.1084 27.5343H1.89156C0.846875 27.5343 0 26.6873 0 25.6426V7.35732C0 6.31257 0.846875 5.4657 1.89156 5.4657H30.1084C31.1532 5.4657 32 6.31264 32 7.35732V25.6426Z" fill="#F5F4F8"/>
<path d="M19.0263 11.283H12.9735V22.0437H19.0263V11.283Z" fill="#FF5F00"/>
<path d="M13.3582 16.663C13.3573 15.6266 13.5947 14.6037 14.0524 13.6715C14.5102 12.7394 15.1763 11.9224 16.0003 11.2826C14.9799 10.4891 13.7543 9.99558 12.4637 9.85854C11.1732 9.72151 9.86965 9.94645 8.7022 10.5077C7.53474 11.0689 6.55044 11.9437 5.86181 13.0322C5.17317 14.1207 4.80798 15.3789 4.80798 16.663C4.80798 17.9471 5.17317 19.2053 5.86181 20.2938C6.55044 21.3822 7.53474 22.2571 8.7022 22.8183C9.86965 23.3795 11.1732 23.6045 12.4637 23.4674C13.7543 23.3304 14.9799 22.8369 16.0003 22.0434C15.1763 21.4035 14.5102 20.5866 14.0524 19.6545C13.5947 18.7223 13.3573 17.6993 13.3582 16.663Z" fill="#EB001B"/>
<path d="M27.192 16.663C27.1921 17.9471 26.8269 19.2053 26.1383 20.2937C25.4497 21.3822 24.4655 22.2571 23.298 22.8183C22.1306 23.3795 20.8271 23.6045 19.5365 23.4674C18.246 23.3304 17.0205 22.8369 16 22.0434C16.8233 21.4029 17.4889 20.5858 17.9466 19.6538C18.4043 18.7218 18.6421 17.6992 18.6421 16.663C18.6421 15.6268 18.4043 14.6042 17.9466 13.6721C17.4889 12.7401 16.8233 11.9231 16 11.2826C17.0205 10.4891 18.246 9.99558 19.5365 9.85854C20.8271 9.72151 22.1306 9.94646 23.298 10.5077C24.4655 11.0689 25.4497 11.9438 26.1383 13.0322C26.8269 14.1207 27.1921 15.3789 27.192 16.663Z" fill="#F79E1B"/>
<path d="M26.5322 20.9048V20.6845H26.622V20.6396H26.3933V20.6845H26.4831V20.9048H26.5322ZM26.9762 20.9048V20.6392H26.9061L26.8254 20.8219L26.7448 20.6392H26.6747V20.9048H26.7242V20.7044L26.7998 20.8772H26.8511L26.9267 20.704V20.9048H26.9762Z" fill="#F79E1B"/>
</svg>
