<svg width="32" height="33" viewBox="0 0 32 33" fill="none" xmlns="http://www.w3.org/2000/svg">
<path d="M32 25.6426C32 26.6874 31.1531 27.5343 30.1084 27.5343H1.89156C0.846875 27.5343 0 26.6873 0 25.6426V7.35732C0 6.31257 0.846875 5.4657 1.89156 5.4657H30.1084C31.1532 5.4657 32 6.31264 32 7.35732V25.6426Z" fill="#F5F4F8"/>
<path d="M20.7771 9.77933C20.0759 8.97777 18.7736 8.57727 16.9706 8.57727H11.9616C11.661 8.57727 11.3606 8.87802 11.2604 9.17808L9.25684 22.301C9.25684 22.602 9.45727 22.8019 9.65727 22.8019H12.7627L13.5641 17.8935V18.0939C13.6645 17.7931 13.9647 17.493 14.2655 17.493H15.7683C18.6733 17.493 20.8766 16.2909 21.578 12.9847V12.6842C21.4779 12.6842 21.4779 12.6842 21.578 12.6842C21.6783 11.3823 21.478 10.5807 20.7771 9.77933Z" fill="#263B80"/>
<path d="M21.5781 12.9848V12.6843C21.5788 12.6743 21.5792 12.6651 21.5798 12.6552C21.4017 12.5314 21.2348 12.445 21.1073 12.389C20.499 12.1377 19.877 12.0903 19.5899 12.0832L19.5884 12.0819H18.1275C18.1275 12.0819 18.1288 12.0827 18.1294 12.0831H15.065C14.544 12.102 14.4004 12.5221 14.3628 12.7048L13.5642 17.8937V18.0168V18.094C13.6646 17.7932 13.9648 17.493 14.2656 17.493H15.7684C18.6733 17.493 20.8767 16.2909 21.5781 12.9848Z" fill="#232C65"/>
<path d="M22.5622 13.9259C22.3359 13.3013 21.9353 12.9023 21.5799 12.6552C21.5792 12.665 21.5788 12.6743 21.5782 12.6842V12.9847C20.8768 16.2908 18.6734 17.493 15.7685 17.493H14.2657C13.9649 17.493 13.6647 17.793 13.5643 18.0939V18.0167C13.5529 18.0423 13.5423 18.0681 13.5337 18.0939L12.9677 21.5468L12.7628 22.802H12.762L12.5321 24.2046C12.5321 24.4048 12.6324 24.6048 12.9326 24.6048H15.4297C15.932 24.6048 16.0899 24.214 16.1384 24.0034L16.1595 23.8726V23.8725L16.639 20.8985C16.639 20.8985 16.7015 20.1973 17.3856 20.1973H17.6412C20.1455 20.1973 22.149 19.1958 22.6499 16.1907C22.7891 15.3528 22.7822 14.5645 22.5622 13.9259Z" fill="#139AD6"/>
</svg>
